{"title":"House Husbands - S02E04 - Episode Four.mp4","uid":8544038,"size":186249822,"categoryP":"video","categoryS":"tv_shows","magnet":"?xt=urn:btih:38af51bf7160ac6d6cb83b4223e18dae66072a6f&amp;dn=House+Husbands+-+S02E04+-+Episode+Four.mp4&amp;tr=udp%3A%2F%2Ftracker.openbittorrent.com%3A80&amp;tr=udp%3A%2F%2Fopen.demonii.com%3A1337&amp;tr=udp%3A%2F%2Ftracker.coppersurfer.tk%3A6969&amp;tr=udp%3A%2F%2Fexodus.desync.com%3A6969","seeders":1,"leechers":0,"uploader":"yousef86","files":-1,"time":1370473851,"description":"Episode 4\n=========\nLewis becomes jealous of Gemma's friendship with Damo. Phoebe dates Ryan, but does not tell him that she is a mother. Abi and Mark try to relax more, so they can conceive.\n\nGeneral\n=======\nComplete name : House Husbands - S02E04 - Episode Four.mp4\nFormat : MPEG-4\nFormat profile : Base Media / Version 2\nCodec ID : mp42\nFile size : 178 MiB\nDuration : 45mn 12s\nOverall bit rate mode : Variable\nOverall bit rate : 549 Kbps\nEncoded date : UTC 2013-05-06 12:40:45\nTagged date : UTC 2013-05-06 12:40:45\ngsst : 0\ngstd : 2712555\ngssd : BADC206A1HH1370427617932799\ngshh :\n\nVideo\n=====\nID : 1\nFormat : AVC\nFormat/Info : Advanced Video Codec\nFormat profile : &lt;a class=&quot;__cf_email__&quot; href=&quot;/cdn-cgi/l/email-protection&quot; data-cfemail=&quot;56143725333a3f3833161a657866&quot;&gt;[email&amp;#160;protected]&lt;/a&gt;&lt;script cf-hash='f9e31' type=&quot;text/javascript&quot;&gt;\n/* &lt;![CDATA[ */!function(){try{var t=&quot;currentScript&quot;in document?document.currentScript:function(){for(var t=document.getElementsByTagName(&quot;script&quot;),e=t.length;e--;)if(t[e].getAttribute(&quot;cf-hash&quot;))return t[e]}();if(t&amp;&amp;t.previousSibling){var e,r,n,i,c=t.previousSibling,a=c.getAttribute(&quot;data-cfemail&quot;);if(a){for(e=&quot;&quot;,r=parseInt(a.substr(0,2),16),n=2;a.length-n;n+=2)i=parseInt(a.substr(n,2),16)^r,e+=String.fromCharCode(i);e=document.createTextNode(e),c.parentNode.replaceChild(e,c)}}}catch(u){}}();/* ]]&gt; */&lt;/script&gt;\nFormat settings, CABAC : No\nFormat settings, ReFrames : 1 frame\nCodec ID : avc1\nCodec ID/Info : Advanced Video Coding\nDuration : 45mn 12s\nBit rate : 451 Kbps\nMaximum bit rate : 1 694 Kbps\nWidth : 640 pixels\nHeight : 360 pixels\nDisplay aspect ratio : 16:9\nFrame rate mode : Constant\nFrame rate : 25.000 fps\nColor space : YUV\nChroma subsampling : 4:2:0\nBit depth : 8 bits\nScan type : Progressive\nBits/(Pixel*Frame) : 0.078\nStream size : 146 MiB (82%)\nTagged date : UTC 2013-05-06 12:41:16\n\nAudio\n=====\nID : 2\nFormat : AAC\nFormat/Info : Advanced Audio Codec\nFormat profile : LC\nCodec ID : 40\nDuration : 45mn 12s\nBit rate mode : Variable\nBit rate : 96.0 Kbps\nMaximum bit rate : 104 Kbps\nChannel(s) : 2 channels\nChannel positions : Front: L R\nSampling rate : 44.1 KHz\nCompression mode : Lossy\nStream size : 31.0 MiB (17%)\nTitle : IsoMedia File Produced by Google, 5-11-2011\nEncoded date : UTC 2013-05-06 12:41:02\nTagged date : UTC 2013-05-06 12:41:16","torrent":{"xt":"urn:btih:38af51bf7160ac6d6cb83b4223e18dae66072a6f","amp;dn":"House+Husbands+-+S02E04+-+Episode+Four.mp4","amp;tr":["udp%3A%2F%2Ftracker.openbittorrent.com%3A80","udp%3A%2F%2Fopen.demonii.com%3A1337","udp%3A%2F%2Ftracker.coppersurfer.tk%3A6969","udp%3A%2F%2Fexodus.desync.com%3A6969"],"infoHash":"38af51bf7160ac6d6cb83b4223e18dae66072a6f","infoHashBuffer":{"type":"Buffer","data":[56,175,81,191,113,96,172,109,108,184,59,66,35,225,141,174,102,7,42,111]},"announce":[],"urlList":[]}}